<?xml version="1.0"?>
<svg xmlns="http://www.w3.org/2000/svg" viewBox="0 0 50 50">
    <path style="line-height:normal;text-indent:0;text-align:start;text-decoration-line:none;text-decoration-style:solid;text-decoration-color:#fff!important; fill:#fff;text-transform:none;block-progression:tb;isolation:auto;mix-blend-mode:normal" d="M 10.599609 4 C 5.8620649 4 2 7.8620649 2 12.599609 L 2 31.400391 L 2 38.400391 C 2 43.137935 5.8620649 47 10.599609 47 L 39.400391 47 C 44.137935 47 48 43.137935 48 38.400391 L 48 30.599609 L 48 12.599609 C 48 7.8620649 44.137935 4 39.400391 4 L 10.599609 4 z M 10.599609 6 L 39.400391 6 C 43.056846 6 46 8.9431546 46 12.599609 L 46 30.599609 L 46 31.400391 C 46 35.056846 43.056846 38 39.400391 38 L 10.599609 38 C 6.9431546 38 4 35.056846 4 31.400391 L 4 30.599609 L 4 12.599609 C 4 8.9431546 6.9431546 6 10.599609 6 z M 34.820312 17.384766 L 34.820312 27.753906 L 36.515625 27.753906 L 36.515625 17.384766 L 34.820312 17.384766 z M 17.525391 17.642578 C 14.729391 17.642578 13 19.618219 13 22.824219 C 13 26.016219 14.73525 27.999 17.53125 28 C 19.80825 28 21.476984 26.640047 21.708984 24.623047 L 19.972656 24.623047 C 19.733656 25.731047 18.784203 26.427734 17.533203 26.427734 C 15.851203 26.427734 14.804688 25.046359 14.804688 22.818359 C 14.804687 20.596359 15.850391 19.216797 17.525391 19.216797 C 18.769391 19.216797 19.720797 19.981063 19.966797 21.164062 L 21.701172 21.164062 C 21.496172 19.106063 19.767391 17.642578 17.525391 17.642578 z M 24.027344 18.490234 L 24.027344 20.322266 L 22.810547 20.322266 L 22.810547 21.675781 L 24.027344 21.675781 L 24.027344 25.757812 C 24.027344 27.206812 24.709781 27.787109 26.425781 27.787109 C 26.753781 27.787109 27.061781 27.753078 27.300781 27.705078 L 27.300781 26.378906 C 27.101781 26.398906 26.979234 26.412109 26.740234 26.412109 C 26.029234 26.412109 25.714844 26.085656 25.714844 25.347656 L 25.714844 21.677734 L 27.355469 21.677734 L 27.355469 20.322266 L 25.714844 20.322266 L 25.714844 18.490234 L 24.027344 18.490234 z M 32.722656 20.152344 C 31.765656 20.152344 30.964766 20.6995 30.759766 21.4375 L 30.644531 21.4375 L 30.644531 20.275391 L 29.009766 20.275391 L 29.009766 27.751953 L 30.705078 27.751953 L 30.705078 23.431641 C 30.705078 22.386641 31.471594 21.703125 32.558594 21.703125 C 32.824594 21.703125 33.289922 21.750828 33.419922 21.798828 L 33.419922 20.226562 C 33.255922 20.178563 32.961656 20.152344 32.722656 20.152344 z M 4 36.902344 C 5.5794631 38.792759 7.9525731 40 10.599609 40 L 39.400391 40 C 42.047427 40 44.420537 38.792759 46 36.902344 L 46 38.400391 C 46 42.056846 43.056846 45 39.400391 45 L 10.599609 45 C 6.9431546 45 4 42.056846 4 38.400391 L 4 36.902344 z" font-weight="400" font-family="sans-serif" white-space="normal" overflow="visible"/>
</svg>
